<svg width="47" height="38" viewBox="0 0 47 38" fill="none" xmlns="http://www.w3.org/2000/svg">
<path d="M41.2419 13.5098C41.1 13.3884 40.9195 13.3217 40.7328 13.3217H32.8995V7.05501C32.8995 6.84729 32.8169 6.64795 32.6701 6.50108C32.5232 6.35421 32.3239 6.27168 32.1161 6.27168H28.9828V7.83834H31.3328V32.1216H12.4622C12.3691 31.5701 12.1782 31.0392 11.8984 30.5549H26.6331C26.8408 30.5549 27.0402 30.4724 27.187 30.3255C27.3339 30.1786 27.4164 29.9793 27.4164 29.7716V15.6716H28.9831C29.1908 15.6716 29.3901 15.5891 29.537 15.4422C29.6839 15.2954 29.7664 15.096 29.7664 14.8883V10.1883C29.7664 9.98061 29.6839 9.78127 29.537 9.6344C29.3901 9.48753 29.1908 9.405 28.9831 9.405H20.4525L23.8443 6.75743L23.9226 6.69484H23.9229C24.9136 5.70417 25.3004 4.25989 24.9378 2.90692C24.5751 1.55359 23.518 0.49641 22.1646 0.13375C20.8116 -0.228891 19.3674 0.15788 18.3767 1.14859L18.3141 1.22692L16.4499 3.62409L14.5856 1.22692L14.523 1.14859C13.5324 0.157922 12.0881 -0.228909 10.7351 0.13375C9.38179 0.496392 8.32461 1.5535 7.96195 2.90692C7.59931 4.25989 7.98608 5.70417 8.97679 6.69484L9.05512 6.75743L12.455 9.405H3.91665C3.48407 9.405 3.13332 9.75575 3.13332 10.1883V14.8883C3.13332 15.096 3.21585 15.2954 3.36273 15.4422C3.5096 15.5891 3.70893 15.6716 3.91665 15.6716H5.48331V28.8397C4.27295 29.5401 3.43752 30.7435 3.20396 32.1219H1.56666V7.8387H3.91665V6.27204H0.78333C0.350753 6.27204 0 6.62279 0 7.05537V32.9053C0 33.113 0.0825299 33.3123 0.229404 33.4592C0.376278 33.6061 0.575609 33.6886 0.78333 33.6886H3.20396C3.46029 35.1528 4.39435 36.4093 5.72252 37.0769C7.05033 37.7445 8.61628 37.7445 9.94409 37.0769C11.2723 36.4093 12.2063 35.1528 12.4627 33.6886H34.5373C34.7937 35.1528 35.7277 36.4093 37.0559 37.0769C38.3837 37.7445 39.9497 37.7445 41.2775 37.0769C42.6056 36.4093 43.5397 35.1528 43.796 33.6886H46.2167C46.4244 33.6886 46.6237 33.6061 46.7706 33.4592C46.9175 33.3123 47 33.113 47 32.9053V18.8053C47 18.5763 46.9 18.3588 46.7258 18.2101L41.2419 13.5098ZM13.316 28.9884H10.4254C9.65672 28.4785 8.75521 28.2061 7.83267 28.2051C7.57004 28.2089 7.30847 28.2323 7.04934 28.2757V15.6717H13.316V28.9884ZM18.016 28.9884H14.8826V15.6718H18.016V28.9884ZM25.8493 28.9884H19.5826V15.6718H25.8493V28.9884ZM10.0573 5.55116C9.6265 5.11194 9.38555 4.52128 9.38555 3.90616C9.38555 3.29104 9.6265 2.70037 10.0573 2.26117C10.5039 1.84503 11.0918 1.61352 11.7023 1.61352C12.3126 1.61352 12.9004 1.84502 13.3473 2.26117L15.7991 5.39449C15.9474 5.58578 16.1757 5.69768 16.4177 5.69768C16.6597 5.69768 16.8884 5.58578 17.0367 5.39449L19.4885 2.26117C19.935 1.84503 20.5229 1.61352 21.1335 1.61352C21.744 1.61352 22.3319 1.84502 22.7785 2.26117C23.2089 2.70039 23.4502 3.29105 23.4502 3.90616C23.4502 4.52129 23.2089 5.11195 22.7785 5.55116L19.6451 8.00294C18.9178 6.92024 17.6987 6.27084 16.3944 6.27084C15.09 6.27084 13.8712 6.92023 13.1436 8.00294L10.0573 5.55116ZM18.7991 10.1886C18.7991 10.8117 18.5515 11.4098 18.1109 11.8503C17.6703 12.2908 17.0723 12.5385 16.4492 12.5385C15.8261 12.5385 15.228 12.2909 14.7874 11.8503C14.3469 11.4097 14.0992 10.8116 14.0992 10.1886C14.0992 9.56548 14.3468 8.96737 14.7874 8.52683C15.2281 8.08628 15.8261 7.83862 16.4492 7.83862C17.0723 7.83862 17.6704 8.0862 18.1109 8.52683C18.5514 8.96745 18.7991 9.56548 18.7991 10.1886ZM4.69917 14.1052V10.9719H12.6108C12.8524 12.1616 13.6319 13.1722 14.7216 13.7076C15.8109 14.243 17.0873 14.243 18.1767 13.7076C19.2663 13.1722 20.0458 12.1616 20.2874 10.9719H28.1991V14.1052H4.69917ZM7.83249 36.0385C7.00161 36.0385 6.2046 35.7083 5.61679 35.1208C5.02929 34.533 4.69917 33.736 4.69917 32.9051C4.69917 32.0743 5.02929 31.2772 5.61679 30.6894C6.20463 30.1019 7.00162 29.7718 7.83249 29.7718C8.66336 29.7718 9.46039 30.1019 10.0482 30.6894C10.6357 31.2773 10.9658 32.0743 10.9658 32.9051C10.9658 33.736 10.6357 34.533 10.0482 35.1208C9.46035 35.7083 8.66336 36.0385 7.83249 36.0385ZM39.1657 36.0385C38.3348 36.0385 37.5378 35.7083 36.95 35.1208C36.3625 34.533 36.0324 33.736 36.0324 32.9051C36.0324 32.0743 36.3625 31.2772 36.95 30.6894C37.5378 30.1019 38.3348 29.7718 39.1657 29.7718C39.9966 29.7718 40.7936 30.1019 41.3814 30.6894C41.9689 31.2773 42.299 32.0743 42.299 32.9051C42.299 33.736 41.9689 34.533 41.3814 35.1208C40.7936 35.7083 39.9966 36.0385 39.1657 36.0385ZM45.4323 28.2052H43.8657V29.7718H45.4323V32.1218H43.795C43.5387 30.6577 42.6047 29.4011 41.2765 28.7335C39.9487 28.066 38.3827 28.066 37.0549 28.7335C35.7268 29.4011 34.7927 30.6576 34.5364 32.1218H32.8991V14.8885H40.4425L45.4323 19.1653V28.2052Z" fill="white"/>
<path d="M39.1659 16.4551H35.2492C34.8166 16.4551 34.4659 16.8058 34.4659 17.2384V25.855C34.4659 26.0628 34.5484 26.2621 34.6953 26.409C34.8422 26.5558 35.0415 26.6384 35.2492 26.6384H43.0825C43.2902 26.6384 43.4896 26.5558 43.6364 26.409C43.7833 26.2621 43.8658 26.0628 43.8658 25.855V20.3717C43.8648 20.1332 43.7553 19.9084 43.5683 19.7608L39.6516 16.6275C39.5138 16.517 39.3425 16.4561 39.1659 16.4551ZM42.2992 25.0717H36.0325V18.0217H38.8917L42.2992 20.7476V25.0717Z" fill="white"/>
<path d="M15.666 8.62195V9.40528H14.8826V10.9719H15.666V11.7553H17.2326V10.9719H18.016V9.40528H17.2326V8.62195H15.666Z" fill="white"/>
<path d="M5.48267 6.27197H7.04933V7.83863H5.48267V6.27197Z" fill="white"/>
<path d="M25.8492 6.27197H27.4159V7.83863H25.8492V6.27197Z" fill="white"/>
</svg>
