<svg width="43" height="38" viewBox="0 0 43 38" fill="none" xmlns="http://www.w3.org/2000/svg">
<path d="M40.1853 38H3.59252C2.84622 38 2.13021 37.7034 1.60221 37.1756C1.07444 36.6475 0.777832 35.9316 0.777832 35.1853V2.81469C0.777832 2.06839 1.07441 1.35238 1.60221 0.824382C2.13028 0.296609 2.84625 0 3.59252 0H40.1853C40.9316 0 41.6476 0.296579 42.1756 0.824382C42.7034 1.35245 43 2.06842 43 2.81469V35.1853C43 35.9316 42.7034 36.6476 42.1756 37.1756C41.6476 37.7034 40.9316 38 40.1853 38ZM3.59252 1.40795C3.21937 1.40795 2.86124 1.55609 2.59737 1.81997C2.3335 2.08386 2.18534 2.44199 2.18534 2.81513V35.1857C2.18534 35.5589 2.33348 35.917 2.59737 36.1809C2.86126 36.4448 3.21939 36.5929 3.59252 36.5929H40.1853C40.5585 36.5929 40.9166 36.4448 41.1805 36.1809C41.4444 35.917 41.5925 35.5589 41.5925 35.1857V2.81513C41.5925 2.44198 41.4444 2.08385 41.1805 1.81997C40.9166 1.5561 40.5585 1.40795 40.1853 1.40795H3.59252Z" fill="white"/>
<path d="M6.40782 7.03691C5.84794 7.03691 5.31073 6.81455 4.9149 6.41872C4.51907 6.02289 4.29671 5.48569 4.29671 4.9258C4.29671 4.36591 4.51907 3.82901 4.9149 3.43318C5.31073 3.03735 5.84793 2.8147 6.40782 2.8147C6.96771 2.8147 7.50461 3.03735 7.90044 3.43318C8.29627 3.82901 8.51892 4.36591 8.51892 4.9258C8.51892 5.48569 8.29627 6.02289 7.90044 6.41872C7.50461 6.81455 6.96771 7.03691 6.40782 7.03691ZM6.40782 4.22222C6.12303 4.22222 5.8665 4.39362 5.75753 4.65663C5.64856 4.91963 5.70893 5.22239 5.91008 5.42356C6.11124 5.62472 6.414 5.68509 6.67701 5.57611C6.94002 5.46714 7.11143 5.21062 7.11143 4.92582C7.11143 4.73939 7.03721 4.56032 6.90526 4.42838C6.77332 4.29644 6.59425 4.22222 6.40782 4.22222Z" fill="white"/>
<path d="M12.0369 7.03691C11.477 7.03691 10.9401 6.81455 10.5443 6.41872C10.1485 6.02289 9.9258 5.48569 9.9258 4.9258C9.9258 4.36591 10.1485 3.82901 10.5443 3.43318C10.9401 3.03735 11.477 2.8147 12.0369 2.8147C12.5968 2.8147 13.134 3.03735 13.5298 3.43318C13.9257 3.82901 14.148 4.36591 14.148 4.9258C14.148 5.48569 13.9257 6.02289 13.5298 6.41872C13.134 6.81455 12.5968 7.03691 12.0369 7.03691ZM12.0369 4.22222C11.7524 4.22222 11.4959 4.39362 11.3869 4.65663C11.2779 4.91963 11.338 5.22239 11.5395 5.42356C11.7406 5.62472 12.0434 5.68509 12.3064 5.57611C12.5694 5.46714 12.7408 5.21062 12.7408 4.92582C12.7408 4.73939 12.6666 4.56032 12.5346 4.42838C12.4027 4.29644 12.2236 4.22222 12.0369 4.22222Z" fill="white"/>
<path d="M42.2964 9.85243H1.48143C1.09297 9.85243 0.777832 9.5373 0.777832 9.14854C0.777832 8.76008 1.09297 8.44495 1.48143 8.44495H42.2964C42.6849 8.44495 43 8.76008 43 9.14854C43 9.5373 42.6849 9.85243 42.2964 9.85243Z" fill="white"/>
<path d="M36.6666 9.85235C36.2778 9.85235 35.963 9.53722 35.963 9.14846V0.704086C35.963 0.315622 36.2778 0.000488281 36.6666 0.000488281C37.0554 0.000488281 37.3702 0.315622 37.3702 0.704086V9.14846C37.3702 9.33519 37.2963 9.51426 37.1643 9.6462C37.0321 9.77814 36.8533 9.85236 36.6666 9.85236L36.6666 9.85235Z" fill="white"/>
<path d="M21.8889 34.4812C19.6494 34.4812 17.5015 33.5917 15.9179 32.0078C14.3343 30.4242 13.4445 28.2766 13.4445 26.0368C13.4445 23.7973 14.3343 21.6494 15.9179 20.0658C17.5015 18.4822 19.6494 17.5924 21.8889 17.5924C24.1284 17.5924 26.2763 18.4822 27.8599 20.0658C29.4436 21.6494 30.3333 23.7973 30.3333 26.0368C30.3309 28.2757 29.4403 30.4221 27.8573 32.0052C26.2743 33.5885 24.1278 34.4788 21.8889 34.4812ZM21.8889 19.0001C20.0226 19.0001 18.2328 19.7414 16.9131 21.0611C15.5933 22.3808 14.852 24.1706 14.852 26.0369C14.852 27.9033 15.5933 29.6934 16.9131 31.0128C18.2328 32.3325 20.0226 33.0741 21.8889 33.0741C23.7553 33.0741 25.545 32.3325 26.8648 31.0128C28.1845 29.6934 28.9258 27.9033 28.9258 26.0369C28.9237 24.1715 28.1819 22.3826 26.8624 21.0634C25.5433 19.7443 23.7547 19.0021 21.8889 19.0001Z" fill="white"/>
<path d="M24.7035 19C24.315 19 23.9999 18.6849 23.9999 18.2964V15.4814C23.9999 14.7272 23.5976 14.0304 22.9443 13.6534C22.2911 13.2761 21.4865 13.2761 20.8332 13.6534C20.18 14.0304 19.7777 14.7272 19.7777 15.4814V18.2964C19.7777 18.6849 19.4625 19 19.0741 19C18.6853 19 18.3702 18.6849 18.3702 18.2964V15.4814C18.3702 14.2244 19.0408 13.0629 20.1296 12.4344C21.2182 11.8059 22.5594 11.8059 23.6479 12.4344C24.7367 13.0629 25.4074 14.2244 25.4074 15.4814V18.2964C25.4074 18.4829 25.3332 18.6619 25.2012 18.7939C25.0693 18.9258 24.8902 19 24.7035 19L24.7035 19Z" fill="white"/>
<path d="M21.8889 27.4444C21.1423 27.4444 20.4264 27.1478 19.8986 26.62C19.3708 26.0919 19.0742 25.376 19.0742 24.6297C19.0742 23.8831 19.3708 23.1672 19.8986 22.6394C20.4264 22.1113 21.1424 21.8147 21.8889 21.8147C22.6355 21.8147 23.3515 22.1113 23.8792 22.6394C24.407 23.1672 24.7036 23.8831 24.7036 24.6297C24.7036 25.376 24.407 26.092 23.8792 26.62C23.3515 27.1478 22.6355 27.4444 21.8889 27.4444ZM21.8889 23.2222C21.5158 23.2222 21.1576 23.3703 20.8938 23.6345C20.6299 23.8984 20.4814 24.2562 20.4814 24.6297C20.4814 25.0028 20.6299 25.361 20.8938 25.6248C21.1577 25.8887 21.5158 26.0369 21.8889 26.0369C22.2621 26.0369 22.6202 25.8887 22.8841 25.6248C23.148 25.3609 23.2964 25.0028 23.2964 24.6297C23.2964 24.2562 23.148 23.8984 22.8841 23.6345C22.6202 23.3703 22.2621 23.2222 21.8889 23.2222Z" fill="white"/>
<path d="M21.8889 30.2592C21.5002 30.2592 21.1853 29.9443 21.1853 29.5556V26.7409C21.1853 26.3521 21.5002 26.037 21.8889 26.037C22.2777 26.037 22.5925 26.3521 22.5925 26.7409V29.5556C22.5925 29.7423 22.5186 29.9211 22.3867 30.0533C22.2544 30.1853 22.0756 30.2592 21.8889 30.2592L21.8889 30.2592Z" fill="white"/>
</svg>
