<svg width="17" height="15" viewBox="0 0 17 15" fill="none" xmlns="http://www.w3.org/2000/svg">
<path d="M1.35099 0.751121C1.14382 0.751121 0.975433 0.582753 0.975433 0.37556C0.975433 0.168383 1.1438 0 1.35099 0H3.77469C3.94157 0 4.08301 0.10844 4.13164 0.259231L5.25244 3.18376H16.6245C16.8316 3.18376 17 3.35213 17 3.55932C17 3.60453 16.9921 3.64813 16.9774 3.68797L14.9946 10.2915C14.9459 10.4541 14.7967 10.5596 14.6352 10.5596V10.56H7.44165C7.29737 10.56 7.16621 10.6189 7.071 10.7141C6.97579 10.8093 6.9169 10.9405 6.9169 11.0848V11.095C6.9169 11.2399 6.9758 11.3714 7.07054 11.4661L7.07157 11.4651C7.16677 11.5603 7.29793 11.6192 7.44222 11.6192H13.9634C14.171 11.6192 14.3389 11.7876 14.3389 11.9948C14.3389 12.2019 14.1706 12.3703 13.9634 12.3703H7.44222C7.09077 12.3703 6.77161 12.227 6.54035 11.9963L6.54137 11.9952L6.54035 11.9942C6.30965 11.7635 6.16628 11.4448 6.16628 11.0944V11.0841C6.16628 10.7326 6.30964 10.4135 6.54035 10.1828C6.77104 9.95208 7.09019 9.8087 7.44222 9.8087H14.357L16.1209 3.93451H5.54142L7.35055 8.6559C7.42418 8.84938 7.32704 9.06638 7.1331 9.13999C6.93962 9.21361 6.72262 9.11647 6.64901 8.92254L4.65187 3.71022C4.64696 3.69892 4.64251 3.68762 4.63862 3.67586L3.51782 0.751035H1.35233L1.35099 0.751121ZM12.9571 13.2154C13.4166 13.2154 13.7897 13.588 13.7897 14.0476C13.7897 14.5076 13.4171 14.8802 12.9571 14.8802C12.4975 14.8802 12.1249 14.5076 12.1249 14.0476C12.1249 13.588 12.4975 13.2154 12.9571 13.2154ZM7.90869 13.2154C8.36826 13.2154 8.74084 13.588 8.74084 14.0476C8.74084 14.5076 8.36826 14.8802 7.90869 14.8802C7.44868 14.8802 7.0761 14.5076 7.0761 14.0476C7.0761 13.588 7.44868 13.2154 7.90869 13.2154Z" fill="white"/>
</svg>
