<svg width="15" height="15" viewBox="0 0 15 15" fill="none" xmlns="http://www.w3.org/2000/svg">
<path d="M7.15834 0.912601C7.15834 1.0872 7.03134 1.23002 6.85674 1.24597C3.36487 1.3888 0.634857 4.24581 0.634857 7.73768C0.634857 9.76931 1.57129 11.6581 3.17446 12.8961V10.4359C3.17446 10.2613 3.31728 10.1185 3.49187 10.1185C3.66647 10.1185 3.80929 10.2613 3.80929 10.4359V13.6103C3.80929 13.7849 3.66646 13.9278 3.49187 13.9278H0.317443C0.142844 13.9278 2.83275e-05 13.7849 2.83275e-05 13.6103C2.83275e-05 13.4357 0.142852 13.2929 0.317443 13.2929H2.65065C0.984045 11.9437 0 9.89629 0 7.73768C0 3.89662 2.99983 0.769808 6.82502 0.595215C6.99962 0.595215 7.14244 0.738039 7.15828 0.912629L7.15834 0.912601ZM11.6343 2.1824H13.9675C14.1421 2.1824 14.2849 2.03958 14.2849 1.86499C14.2849 1.69039 14.1421 1.54757 13.9675 1.54757H10.7931C10.6185 1.54757 10.4756 1.6904 10.4756 1.86499V5.03941C10.4756 5.21401 10.6185 5.35683 10.7931 5.35683C10.9677 5.35683 11.1105 5.214 11.1105 5.03941V2.5792C12.7135 3.81723 13.6501 5.70602 13.6501 7.73765C13.6501 11.2136 10.9359 14.0706 7.45993 14.2452C7.28534 14.2611 7.14252 14.404 7.15834 14.5786C7.17417 14.7532 7.30116 14.8802 7.47575 14.8802H7.49158C11.3009 14.6897 14.2849 11.5629 14.2849 7.73773C14.2849 5.57912 13.3008 3.53162 11.6342 2.18249L11.6343 2.1824Z" fill="white"/>
</svg>
