<svg width="17" height="15" viewBox="0 0 17 15" fill="none" xmlns="http://www.w3.org/2000/svg">
<path fill-rule="evenodd" clip-rule="evenodd" d="M8.50018 3.26688C8.91509 2.54969 9.35439 1.98246 9.87945 1.56435C10.589 0.999628 11.4296 0.717285 12.5397 0.717285C13.7709 0.717285 14.886 1.21493 15.693 2.01851C16.5008 2.82194 17 3.93296 17 5.15792C17 8.06687 15.1057 9.50311 12.5901 11.4098C11.4195 12.2971 10.1084 13.2908 8.79802 14.5954C8.63389 14.7579 8.3672 14.7579 8.20306 14.5954C6.89282 13.2909 5.58157 12.2963 4.41171 11.409C1.89449 9.50279 0 8.0659 0 5.15781C0 3.93289 0.499851 2.82184 1.30699 2.0184C2.11399 1.21497 3.22911 0.717321 4.46032 0.717321C5.57036 0.717321 6.41104 0.999674 7.12055 1.56438C7.64565 1.98336 8.0849 2.55045 8.49982 3.26691L8.50018 3.26688ZM10.403 2.21614C9.82564 2.67522 9.35439 3.3858 8.87549 4.33919C8.8359 4.41718 8.77279 4.48324 8.68783 4.52518C8.48172 4.62827 8.22924 4.54439 8.12569 4.33919C7.64683 3.38483 7.17472 2.67522 6.59905 2.21614C6.04535 1.77545 5.36953 1.55508 4.46068 1.55508C3.46181 1.55508 2.55617 1.9589 1.90231 2.6107C1.24762 3.26264 0.842014 4.16328 0.842014 5.15778C0.842014 7.65379 2.59407 8.98159 4.92118 10.7447C6.02786 11.5841 7.25904 12.5176 8.50039 13.7115C9.74174 12.5176 10.973 11.5843 12.0805 10.7455C14.4065 8.9818 16.1586 7.65293 16.1586 5.15788C16.1586 4.16342 15.7538 3.26264 15.0983 2.61081C14.4444 1.95901 13.5388 1.55519 12.5399 1.55519C11.6299 1.55519 10.9549 1.77555 10.4029 2.21625L10.403 2.21614Z" fill="white"/>
</svg>
